<svg xmlns="http://www.w3.org/2000/svg" width="1033.384" height="635.209" viewBox="0 0 1033.384 635.209">
  <g id="Group_500" data-name="Group 500" transform="translate(-923.744 -150.791)">
    <g id="Group_499" data-name="Group 499">
      <path id="Path_21" data-name="Path 21" d="M350.356,687.492c-87.579-156.571-77.248-251.584-44-309.164,8.611-14.912,29.958-49.567,71.991-70.664,74.117-37.2,123.842,13.268,209.65-13.915,71.827-22.755,58.414-63.677,136.47-93.143,6.144-2.319,128.9-46.577,221.9,20.342,10.165,7.315,62.12,44.7,71.577,109.676,1.7,11.7,9.279,63.755-22.758,99.092-26.819,29.581-60.228,24.1-63.037,40.436-5.062,29.436,94.959,45.173,125.826,110.25,25.186,53.1-7.554,107.29-7.554,107.29Z" transform="translate(781.034 18.79)" fill="#b7b7b7"/>
      <g id="Group_498" data-name="Group 498" transform="translate(727.625 72.389)">
        <g id="Group_497" data-name="Group 497" transform="translate(196.12 183.872)">
          <path id="Path_442" data-name="Path 442" d="M284.016,828.943s-111.009-236.4,107.777-236.4c115.6,0,67.978-64.86,146.57-139.923s353.447-135.033,411.947,9.915-86.075,255,53.627,236.122c167.879-22.686,234.2,130.283,234.2,130.283Z" transform="translate(-232.398 -299.363)" fill="#fbecdb"/>
          <path id="Path_443" data-name="Path 443" d="M1629.986,1247.757c-10.36-7.57-31.527-2.459-47.15,3.007a71.353,71.353,0,0,0-8.587-9.963c33.656-21.681,80.139-67.916,55.5-71.83-21.417-3.4-50.321,38.216-65.767,63.55-16.041-10.791-40.62-18.724-78.147-15.973-97.392,7.14-173.475-55.681-229.558-34.729-44.592,16.66-85.456,25.992-124.868,22.8,1.7-28.791,2.064-85.318-20.543-91.183-22.952-5.954-.438,58.243,12.074,90.3q-4.4-.563-8.788-1.345c-8.1-15.976-21.454-36.883-36.115-37.6-13.806-.673,3.234,18.123,20,34.047-48.2-10.119-105.368,29.059-106.316,75.382h601.7a55.746,55.746,0,0,0-5.787-15.677C1610.9,1258.091,1641.239,1255.98,1629.986,1247.757Z" transform="translate(-679.299 -748.172)" fill="#a8d29f"/>
          <g id="Group_482" data-name="Group 482" transform="translate(236.195 490.249)">
            <g id="Group_481" data-name="Group 481">
              <rect id="Rectangle_13" data-name="Rectangle 13" width="158.586" height="35.809" transform="translate(48.898 0.001)" fill="#4a75cb"/>
              <rect id="Rectangle_14" data-name="Rectangle 14" width="158.585" height="35.812" fill="#699dee"/>
            </g>
          </g>
          <g id="Group_485" data-name="Group 485" transform="translate(469.656 360.999)">
            <g id="Group_484" data-name="Group 484" transform="translate(0 0)">
              <g id="Group_483" data-name="Group 483" transform="translate(0 0)">
                <rect id="Rectangle_15" data-name="Rectangle 15" width="118.086" height="165.053" transform="translate(154.495 165.053) rotate(180)" fill="#d86713"/>
                <rect id="Rectangle_16" data-name="Rectangle 16" width="118.085" height="165.053" transform="translate(118.085 165.053) rotate(180)" fill="#f1a34f"/>
              </g>
            </g>
            <path id="Path_444" data-name="Path 444" d="M1692.823,1103.168l36.41,24.783v-24.783Z" transform="translate(-1574.738 -1103.168)" fill="#c95c12"/>
          </g>
          <g id="Group_488" data-name="Group 488" transform="translate(16.472 305.658)">
            <path id="Path_445" data-name="Path 445" d="M626.009,1189.469s-22.083,16.422-26.389,15.426,16.139-17.727,16.139-17.727c-7.693-3.7-31.609-1.38-31.609-1.38s-7.966,25.689-11.895,23.664,8.214-22.386,8.214-22.386c-8.569-.516-19.078,5.846-19.078,5.846-14.387,11.363.946,29.251.946,29.251a43.727,43.727,0,0,1-12.039,16.9s-12.976,9.6-13.878,26.744l2.355.21s3.734-15.97,10.519-23.524c.264-.273.648-.666,1.121-1.143,1.105-1.023,1.88-1.792,2.4-2.364,3.377-3.245,8.043-7.378,10.292-7.778a4.341,4.341,0,0,1-.1-1.131c.031.362.063.734.1,1.131.77,9.041,18.31,16.937,29.1,18.56s7.455-2.812,3.737-9.389-15.484-9.519-18.169-12.548,2.865-3.035,9.368-.066,7.391,10.887,17.821,15.882,26.122-12.312,26.122-12.312c-8.312-.422-20.181-9.449-19.752-12.21s20.149,4.765,23.52,5.126,11.041-3.832,12.228-17.41S626.009,1189.469,626.009,1189.469Z" transform="translate(-419.259 -1097.567)" fill="#82b378"/>
            <g id="Group_486" data-name="Group 486" transform="translate(0 38.935)">
              <path id="Path_446" data-name="Path 446" d="M327.532,1124.553s24.392-13.659,13.009-32.2c0,0-9.106-11.382-18.862-14.309,0,0,5.2,27.643,0,28.294s-3.577-31.221-3.577-31.221-25.692-12.358-35.774-11.383c0,0,15.936,26.993,10.732,26.343s-23.09-27.969-23.09-27.969-26.343-4.878-30.57,10.732,2.6,23.415,6.5,24.391,28.944.65,28.294,3.9-17.561,8.456-26.993,5.529c0,0,10.407,25.692,24.066,24.391s17.887-9.757,26.342-10.407,14.635,1.626,10.407,3.9-18.537.746-25.367,6.552-12.358,9.383.325,11.985,35.449.976,40-8.781Z" transform="translate(-238.065 -1061.39)" fill="#a8d29f"/>
              <path id="Path_447" data-name="Path 447" d="M354.709,1173.552c-6.83-12.683-6.5-23.74-6.5-23.74-7.805-24.717-76.1-46.831-76.1-46.831,86.833,35.123,71.547,56.587,71.547,56.587,2.34,1.365,5.849,7.874,8.284,12.868.346.849.9,2.026,1.712,3.622h0c.331.722.595,1.313.778,1.725,4.471,11.186,2.1,30.5,2.1,30.5l2.71.728C365.241,1189.545,354.709,1173.552,354.709,1173.552Z" transform="translate(-258.737 -1086.648)" fill="#82b378"/>
            </g>
            <g id="Group_487" data-name="Group 487" transform="translate(107.134)">
              <path id="Path_448" data-name="Path 448" d="M532.024,1045.5s-32.152-18.005-17.148-42.441c0,0,12-15,24.864-18.863,0,0-6.859,36.439,0,37.3s4.716-41.155,4.716-41.155,33.867-16.29,47.157-15c0,0-21.006,35.582-14.147,34.724S607.9,963.192,607.9,963.192s34.724-6.431,40.3,14.147-3.43,30.865-8.574,32.152-38.154.857-37.3,5.144,23.149,11.146,35.581,7.288c0,0-13.718,33.867-31.723,32.152s-23.578-12.861-34.724-13.719-19.291,2.143-13.718,5.145,24.435.983,33.438,8.637,16.291,12.369-.429,15.8-46.727,1.286-52.729-11.575Z" transform="translate(-510.887 -962.24)" fill="#a8d29f"/>
              <path id="Path_449" data-name="Path 449" d="M638.766,1017.064s-90.026,29.151-100.314,61.732c0,0,.429,14.575-8.574,31.294,0,0-13.884,21.083-5.968,46.747l3.572-.96s-3.122-25.464,2.772-40.21c.24-.543.589-1.322,1.025-2.273h0c1.076-2.1,1.8-3.655,2.257-4.775,3.21-6.583,7.835-15.163,10.92-16.962C544.453,1091.657,524.3,1063.363,638.766,1017.064Z" transform="translate(-517.314 -995.535)" fill="#82b378"/>
            </g>
            <path id="Path_450" data-name="Path 450" d="M464.553,1417.32a62.981,62.981,0,0,0,62.98-62.981H401.572A62.981,62.981,0,0,0,464.553,1417.32Z" transform="translate(-337.364 -1200.365)" fill="#f1a34f"/>
            <path id="Path_451" data-name="Path 451" d="M491.921,1416.837a63.026,63.026,0,0,1-70.8-62.5h15.646A62.992,62.992,0,0,0,491.921,1416.837Z" transform="translate(-349.235 -1200.365)" fill="#ffb973"/>
            <path id="Path_452" data-name="Path 452" d="M519.288,1503.694H407.127a7.771,7.771,0,0,0-7.771,7.77h127.7A7.77,7.77,0,0,0,519.288,1503.694Z" transform="translate(-336.019 -1291.07)" fill="#f1a34f"/>
            <path id="Path_453" data-name="Path 453" d="M524.8,1354.338H397.264a.966.966,0,1,0,0,1.932H524.8a.966.966,0,0,0,0-1.932Z" transform="translate(-334.161 -1200.365)" fill="#d86713"/>
          </g>
          <g id="Group_489" data-name="Group 489" transform="translate(472.512 63.322)">
            <path id="Path_454" data-name="Path 454" d="M1796.448,495.641c-1.825-.277-7.326,4.808-7.326,4.808h0c-11.747,1.357-28.92,4.476-35.1,5.666-4.384.844-16.168-3.174-27.682-7.787-13.692-5.489-27-11.821-27-11.821-7.6-.387-16.226,13.474-.818,22.287,2.352,1.346,11.19,3.642,21.366,5.738h0c14.039,2.893,30.623,5.4,36.268,4.521,6.558-1.026,25.12-7.816,36.162-13.016h0l.028-.014.123-.058c.662-.31,3.365-1.513,5.169-1.407,2.068.123,6.676-3.663,6.816-4.673S1798.274,495.917,1796.448,495.641Z" transform="translate(-1575.858 -430.982)" fill="#ed975d"/>
            <path id="Path_455" data-name="Path 455" d="M1745.291,770.473l-6.467,1.314s-29.6-33.254-34.163-47.247c-2.444-7.478-18.069-10.709-34.4-14.931-14.212-3.675-28.958-8.1-36-16.74-15.136-18.56,9.506-41.366,9.506-41.366s26.2,15.572,48.806,31.66c15.8,11.243,29.842,22.737,31.958,29.343C1729.669,728.57,1740.567,759.105,1745.291,770.473Z" transform="translate(-1539.043 -531.191)" fill="#2b478b"/>
            <path id="Path_456" data-name="Path 456" d="M1897.988,962.005h3.638c1.219-.191,2.118-.544,3.368-.707a3.374,3.374,0,0,1,2.945.707c.024.024.034.037.034.037h15.454c.389-.555.016-1.841-.35-2.787a2.2,2.2,0,0,0-1.447-1.323c-1.639-.475-4.87-.9-7.828-3.576-1.664-1.5-8.038-5.531-8.038-5.531l-.034-.008c-.14,0-.806.207-3.705,2.655-1.5,1.263-4.053-1.784-4.053-1.784a3.632,3.632,0,0,0-.837,1.136,3.836,3.836,0,0,0-.332,2.372c.231,1.392-.513,3.98-1.107,5.73-.36,1.061-.664,1.813-.664,1.813S1894.859,961.614,1897.988,962.005Z" transform="translate(-1700.397 -711.753)" fill="#233862"/>
            <path id="Path_457" data-name="Path 457" d="M1692.573,683.163l-22.311,26.446c-14.212-3.675-28.958-8.1-36-16.74-15.136-18.56,9.506-41.366,9.506-41.366S1669.97,667.075,1692.573,683.163Z" transform="translate(-1539.043 -531.191)" fill="#1e3d70"/>
            <path id="Path_458" data-name="Path 458" d="M1627.557,681.412s-1.8,5.672-4.727,14.206c-3.7,10.79-9.218,26.153-15.2,40.4-1.314,3.13-2.652,6.209-4,9.172-4.975,10.964-10.068,20.363-14.551,25.139-8.056,8.586-27.642,63.786-27.642,63.786l-4.88-1.351s-6.8-47.135,17.3-73.957a1.7,1.7,0,0,0,.488-1,.013.013,0,0,0,0-.01c.321-3.97,1.468-21.75,3.964-39.766.614-4.42,1.307-8.851,2.089-13.1.048-.272.1-.54.15-.808,3.667-19.634,7.178-28.367,11.71-32.759l33.324,9.486Z" transform="translate(-1494.301 -543.253)" fill="#2b478b"/>
            <path id="Path_459" data-name="Path 459" d="M1551.968,1082.681h3.638c1.219-.192,2.118-.545,3.368-.708a3.374,3.374,0,0,1,2.946.708c.023.024.034.036.034.036h15.454c.389-.555.016-1.841-.35-2.788a2.2,2.2,0,0,0-1.447-1.323c-1.639-.474-4.869-.9-7.828-3.575-1.664-1.5-8.038-5.531-8.038-5.531l-.034-.008c-.14,0-.806.208-3.705,2.655-1.5,1.263-4.052-1.784-4.052-1.784a3.641,3.641,0,0,0-.838,1.136,3.844,3.844,0,0,0-.332,2.373c.231,1.392-.513,3.98-1.107,5.73-.361,1.061-.664,1.812-.664,1.812S1548.838,1082.289,1551.968,1082.681Z" transform="translate(-1490.255 -785.04)" fill="#233862"/>
            <path id="Path_460" data-name="Path 460" d="M1468.249,530.348s-5.575,13.64-12,26.918c-5.408,11.163-11.415,22.067-15.226,24.395-5.371,3.282-20.17,12.538-29.769,19.442,0,0-7.491-.057-8.655,1.377s-3.85,7.878-3.065,8.53,6.739.35,8.186-1.133c1.262-1.294,4.072-2.224,4.77-2.44l.13-.04.03-.008h0c11.665-3.588,29.962-11.065,35.5-14.722,4.769-3.148,15.341-16.17,23.774-27.761h0c6.113-8.4,11.1-16.05,11.936-18.628C1489.318,529.388,1473.606,524.947,1468.249,530.348Z" transform="translate(-1399.389 -456.293)" fill="#ffb27d"/>
            <path id="Path_461" data-name="Path 461" d="M1599.742,365.689a28.141,28.141,0,0,0-2-2.581,6.262,6.262,0,0,0,2.461-.37c1.957-.809,2.849-7.022,2.555-8.865s-3.012-7.172-6.365-7.7-6.817,3.192-6.817,3.192c.619-2.688,6.292-4.238,6.292-4.238-11.684,2.154-11.088,9.947-11.008,10.666-10.7-3.81-16.973,16.33-16.973,16.33l27.7,16.326s.073-4.449,2.717-4.162C1602.431,384.732,1605.862,374.61,1599.742,365.689Z" transform="translate(-1501.721 -345.124)" fill="#2c3a64"/>
            <path id="Path_462" data-name="Path 462" d="M1622.248,470.843c-6.356,3-14.792-1.319-14.747-1.365.545-.545.354-2.177-.146-4.311a31.407,31.407,0,0,0-3.859-8.9c-.454-.772-.908-1.544-1.453-2.362l.727-.272,12.35-4.949s2,3.587,4.086,6.856c1.771,2.724,3.632,5.176,4.449,5.086C1623.7,460.582,1631.873,466.211,1622.248,470.843Z" transform="translate(-1522.463 -408.018)" fill="#ffb27d"/>
            <path id="Path_463" data-name="Path 463" d="M1617.367,451.807c-.318,4.4-1.816,12.35-7.764,15.256a31.408,31.408,0,0,0-3.859-8.9Z" transform="translate(-1524.71 -409.914)" fill="#ed975d"/>
            <path id="Path_464" data-name="Path 464" d="M1582.713,432.72s16.079-6.338,11.978-16.29-4.787-17.472-15.226-13.847-10.857,8.239-10.3,11.894S1578.425,434.112,1582.713,432.72Z" transform="translate(-1502.402 -379.457)" fill="#ffb27d"/>
            <path id="Path_465" data-name="Path 465" d="M1585.647,412.556c7.424-1.048,9.591-4.049,9.591-4.049a20.565,20.565,0,0,1-10.855-8.658s-8.344-2.814-14.528,1.89a4.17,4.17,0,0,0-.782,1.744c-1.417-.464-3.549-.344-4.778,3.662-1.848,6.017,4.725,12.588,4.725,12.588,1.594-.45-.2-5.813-.455-8.675-.184-2.107.952-4.8,1.564-6.081.787,1.021,8.619,10.863,18.181,11.256a40.334,40.334,0,0,1-9.649-5.181A12.34,12.34,0,0,0,1585.647,412.556Z" transform="translate(-1499.339 -377.852)" fill="#2c3a64"/>
            <path id="Path_466" data-name="Path 466" d="M1623.484,507.247c-.136-.48-.282-.978-.436-1.49a37.728,37.728,0,0,0,4.058-12.159c1.09-7.356-.772-11.9-.772-11.9s-11.153-5.914-16.077-6.667a.276.276,0,0,0-.062-.018c-.058-.008-.125-.014-.2-.018-4.971-.686-15.733,1.511-15.733,1.511s2.076,5.527-3.781,9.211-12.112-.944-12.112-.944c-.188.127-.39.267-.6.413h0s-15.411,10.168-16.794,12.492-7.31,13.829-7.31,13.829,1.879,9.658,22.7,10.466a48.1,48.1,0,0,1,3.448,11.576c1.653,13.111-.266,23.453,1.661,31.105s36.662,3.289,42.952,1.817,4.875-8.189,5.359-14.714C1630.4,543.559,1625.532,514.479,1623.484,507.247Z" transform="translate(-1493.086 -423.917)" fill="#699dee"/>
            <path id="Path_467" data-name="Path 467" d="M1724.524,517.933a37.731,37.731,0,0,1-4.086,12.213c-.545-2.406-2.77-11.214-6.356-15.211C1714.082,514.935,1720.12,515.481,1724.524,517.933Z" transform="translate(-1590.505 -448.252)" fill="#4a82d3"/>
          </g>
          <g id="Group_493" data-name="Group 493" transform="translate(281.124 144.183)">
            <path id="Path_468" data-name="Path 468" d="M1380.419,724.31s6.472-7.842,7.864-8.769,7.506-2.552,7.855-2.225.365.8-.392,1.47-3.648,2.356-3.235,2.546,9.133-4.152,10.391-2.691-.712,7.488-4.073,10.378-13.391,4.122-14.023,4.525C1379.456,732.965,1380.419,724.31,1380.419,724.31Z" transform="translate(-1196.439 -649.566)" fill="#ed975d"/>
            <path id="Path_469" data-name="Path 469" d="M1090.393,663.168s9.3,11.03,21.135,6.416c0,0,2.547-6.16,2.583-10.7,0-.559.011-1.1.02-1.616.063-5.113.236-7.982.236-7.982l-.012,0c-.538-.225-18.1-7.433-18.083-6.835C1096.572,656.277,1090.393,663.168,1090.393,663.168Z" transform="translate(-1020.344 -606.531)" fill="#ffb27d"/>
            <path id="Path_470" data-name="Path 470" d="M1109.833,650.7c1.693,3.139,7.5,9.279,16.1,11.522.063-5.113.236-7.982.236-7.982l-.012,0C1125.668,654.107,1109.329,649.775,1109.833,650.7Z" transform="translate(-1032.144 -611.485)" fill="#ed975d"/>
            <path id="Path_471" data-name="Path 471" d="M1121.459,608.227s-19.747,4.643-22.449-7.7-7.07-20.055,5.424-23.541,15.982.686,17.886,4.586S1126.526,606.7,1121.459,608.227Z" transform="translate(-1023.76 -566.004)" fill="#ffb27d"/>
            <path id="Path_472" data-name="Path 472" d="M1084.121,588.925c-.27.172-4.519,1.478-12.566-14.553a13.963,13.963,0,0,1,.821-12.77c2.945-4.81,13.385-8.592,22.06-10.238s10.757,3.235,12.8,8.141c2.144,5.149,8.337,9.389,8.337,9.389-7.481,4.179-16.49-1.8-19.611-.815s-4.224,5.9-4.458,7.479-.594,2.886-4.519,1.478-1.774,5.563-1.146,6.9C1085.839,583.932,1086.373,587.483,1084.121,588.925Z" transform="translate(-1008.195 -551.039)" fill="#a9453d"/>
            <g id="Group_490" data-name="Group 490" transform="translate(0 151.609)">
              <path id="Path_473" data-name="Path 473" d="M937.068,1386.023H925.111c-2.506,0-5.292-2.543-5.989-7.2s-5.85-7.2-6.965-11.011,4.6-9.179,4.6-9.179l.955-1.243.994-1.3,9.472,2.257s.234,2.286.38,5.2c.1,2.1.157,4.532.039,6.663-.279,5.083,1.405,10.556,5.86,11.545S937.068,1386.023,937.068,1386.023Z" transform="translate(-912.012 -1191.566)" fill="#2c3a64"/>
              <path id="Path_474" data-name="Path 474" d="M1135.415,1405.126h-31.7a2.8,2.8,0,0,1-.673-.2c-2.116-1.09-1.453-9.433-1.2-12.01.049-.477.083-.757.083-.757s11.145-9.178,12.679-2.15c.049.219.1.435.163.646v0c1.935,6.576,10.584,9.562,15.58,10.395C1134.171,1401.691,1135.161,1403.981,1135.415,1405.126Z" transform="translate(-1027.118 -1210.553)" fill="#2c3a64"/>
              <path id="Path_475" data-name="Path 475" d="M1098.385,961.327s-1.692,21.118-3.682,46.5c-2.7,34.484-5.956,76.842-6.277,84.866-.556,13.934-2.788,36.223-2.788,36.223s-5.291,5.295-15.881,3.063c0,0-9.437-31.818-12.133-65.482-.042-.552-.083-1.108-.126-1.664-2.507-34.27-6.407-106.436-6.407-106.436Z" transform="translate(-996.477 -950.043)" fill="#ee9849"/>
              <path id="Path_476" data-name="Path 476" d="M1098.385,961.327s-1.692,21.118-3.682,46.5l-37.079,58.67c-.042-.552-.083-1.108-.126-1.664-2.507-34.27-6.407-106.436-6.407-106.436Z" transform="translate(-996.477 -950.043)" fill="#e58638"/>
              <path id="Path_477" data-name="Path 477" d="M1013.523,950.909s-30.51,76.482-50.57,112.425-26.329,45.973-26.329,45.973-11.494-4.6-12.539-7.731c0,0,7.672-69.389,21.106-86.3,7.591-9.558,16.508-38.241,16.926-48.271s2.717-29.882,2.717-29.882Z" transform="translate(-919.344 -937.117)" fill="#ee9849"/>
            </g>
            <g id="Group_491" data-name="Group 491" transform="translate(9.377 57.859)">
              <path id="Path_478" data-name="Path 478" d="M950.839,933.967s-.79,9.552-1.369,11.018-4.436,6.013-4.883,5.948-.714-.424-.488-1.349,1.556-3.785,1.135-3.711S940.4,954,938.64,953.547s-3.478-6.179-2.432-10.224,8.147-10.4,8.419-11.047C946.927,926.75,950.839,933.967,950.839,933.967Z" transform="translate(-935.89 -839.162)" fill="#ed975d"/>
              <path id="Path_479" data-name="Path 479" d="M959.125,795.606c3.377,1.084,3.918.839,3.918.839s16.436-29.924,18.1-32.663,34.9-33.557,34.9-33.557l-8.541-31.846s-37.8,48.946-41.879,55.969c-6.745,11.606-10.7,38.561-10.7,38.561A9.881,9.881,0,0,0,959.125,795.606Z" transform="translate(-947.449 -698.379)" fill="#1e3d70"/>
            </g>
            <path id="Path_480" data-name="Path 480" d="M1086.907,731.716c-.119,6.541-.5,13.892-1.011,21.36q-.048.664-.094,1.328c-.328,4.626-.683,9.263-1.091,13.784-.164,1.813-.338,3.6-.519,5.365l-.028.238c-.014.659-.094,1.373-.167,2.025-1.666,16.935-3.413,30.315-3.737,30.521a1.9,1.9,0,0,1-1.3.332c-4.441-.558-17.692.449-28.541-1.911-9.155-1.931-17.037-5.591-25.389-10.528-1.109-.655-3.636-2.391-3.431-3.688.2-1.426.575-3.486,1.05-6.076a328.843,328.843,0,0,0,5.456-42.638q.282-5.068.819-10a151.719,151.719,0,0,1,4.424-23.87c3.719-13.393,9.185-23.649,16.043-27.661.9-.5,5.717,2.565,10.145,5.407a19.544,19.544,0,0,0,12.581,2.98l3.685,4.075c4.462,5.188,9.213,12.094,10.51,21.91q.146,1.088.251,2.315A144.059,144.059,0,0,1,1086.907,731.716Z" transform="translate(-978.558 -629.507)" fill="#2a4e96"/>
            <path id="Path_481" data-name="Path 481" d="M1140.942,776.908c-.119,6.541-.5,13.892-1.011,21.36q-.048.664-.094,1.328c-25.368-15.879-29.277-44.936-29.277-44.936,12.481.548,22.4,3.417,30.036,7.52A143.95,143.95,0,0,1,1140.942,776.908Z" transform="translate(-1032.592 -674.7)" fill="#1e3d70"/>
            <g id="Group_492" data-name="Group 492" transform="translate(75.708 64.387)">
              <path id="Path_482" data-name="Path 482" d="M1216.927,726.144c-1.308-3.538-3.341-3.308-3.341-3.308s-37.718,9.4-41.1,9.8-40.618-14.538-40.618-14.538-14.655-6.577-21.52-.572c-5.965,5.219-6.237,11.83-4.841,17.381a16.6,16.6,0,0,0,14.029,12.365c15.19,1.935,45.5,5.577,51.848,4.693,14.138-1.969,46.171-20.46,46.171-20.46A11.871,11.871,0,0,0,1216.927,726.144Z" transform="translate(-1104.806 -715.001)" fill="#2a4e96"/>
            </g>
          </g>
          <g id="man" transform="translate(654.326)">
            <g id="Group_494" data-name="Group 494" transform="translate(91.478 135.205)">
              <path id="Path_483" data-name="Path 483" d="M2308.1,915.874s5.24,4.857,4.218,8.308-5.752,5.751-6.391,9.97-3.2,6.518-5.5,6.518H2289.46s-1.693-2.968,2.4-3.863,5.632-5.851,5.376-10.452a82.372,82.372,0,0,1,.384-10.736l8.691-2.045Z" transform="translate(-2213.018 -762.231)" fill="#2c3a64"/>
              <path id="Path_484" data-name="Path 484" d="M2125.1,956.906a20.216,20.216,0,0,1-4.964.574h-24.8c.083-.738.661-3.368,4.717-4.022,4.583-.745,12.521-3.408,14.29-9.269.06-.187.11-.381.153-.574,1.4-6.262,11.629,1.916,11.629,1.916s.03.25.073.677C2126.437,948.511,2127.041,955.938,2125.1,956.906Z" transform="translate(-2095.335 -779.042)" fill="#2c3a64"/>
              <path id="Path_485" data-name="Path 485" d="M2110.44,550.389s1.553,19.375,3.378,42.665c2.481,31.638,5.464,70.5,5.759,77.861.511,12.784,2.558,33.233,2.558,33.233s4.854,4.858,14.571,2.81c0,0,8.658-29.191,11.131-60.077.038-.506.076-1.016.115-1.526,2.3-31.442,5.878-97.65,5.878-97.65Z" transform="translate(-2104.508 -540.036)" fill="#35488b"/>
              <path id="Path_486" data-name="Path 486" d="M2110.44,550.389s1.553,19.375,3.378,42.665l34.019,53.827c.038-.506.076-1.016.115-1.526,2.3-31.442,5.878-97.65,5.878-97.65Z" transform="translate(-2104.508 -540.036)" fill="#2c3a64"/>
              <path id="Path_487" data-name="Path 487" d="M2128.5,540.83s27.991,70.17,46.4,103.145,24.157,42.179,24.157,42.179,10.545-4.218,11.5-7.094c0,0-7.038-63.661-19.364-79.18-6.965-8.769-15.146-35.084-15.529-44.288s-2.492-27.416-2.492-27.416Z" transform="translate(-2115.476 -528.176)" fill="#35488b"/>
            </g>
            <g id="Group_495" data-name="Group 495" transform="translate(0 53.845)">
              <path id="Path_488" data-name="Path 488" d="M1880.549,460.93s-7.592-1.736-8.87-1.648-5.748,1.958-5.807,2.32.152.657.924.709,3.315-.275,3.154.033-7.484,1.747-7.564,3.221,3.931,4.213,7.321,4.4,10.054-3.755,10.626-3.8C1885.177,465.733,1880.549,460.93,1880.549,460.93Z" transform="translate(-1862.384 -404.974)" fill="#ffb27d"/>
              <path id="Path_489" data-name="Path 489" d="M1899.036,378.875c-1.088-3.468-.834-4.021-.834-4.021s30.776-16.641,33.595-18.329,34.623-35.534,34.623-35.534L1999,329.958s-50.413,38.4-57.637,42.538c-11.939,6.834-39.588,10.7-39.588,10.7A10.123,10.123,0,0,1,1899.036,378.875Z" transform="translate(-1884.121 -320.991)" fill="#e58638"/>
            </g>
            <path id="Path_490" data-name="Path 490" d="M2056.14,255.662s-11.42,20.095-22.584,22.718c0,0,.465-6.749,3.183-11.367-1.113-1.313-2.09-2.519-2.937-3.6a67.474,67.474,0,0,1-4.146-5.8l3.789-10.186,2.57-6.91a33.228,33.228,0,0,0,4.017,5.788C2047.349,254.713,2056.14,255.662,2056.14,255.662Z" transform="translate(-1963.969 -218.271)" fill="#ffb27d"/>
            <path id="Path_491" data-name="Path 491" d="M2040.032,255.249s1.363,10.07-6.23,17.113a67.461,67.461,0,0,1-4.146-5.8l3.789-10.186A21.639,21.639,0,0,1,2040.032,255.249Z" transform="translate(-1963.969 -227.218)" fill="#ed975d"/>
            <path id="Path_492" data-name="Path 492" d="M1999.66,236.929s17.064-6.653,12.758-17.215-5-18.535-16.081-14.735-11.538,8.689-10.958,12.564S1995.11,238.387,1999.66,236.929Z" transform="translate(-1936.983 -196.106)" fill="#ffb27d"/>
            <path id="Path_493" data-name="Path 493" d="M2119.079,377.87c-6.885,9.9-58.351,23.12-57.741,16.269a74.412,74.412,0,0,0-.007-13.512q-.193-2.2-.547-4.668a107.639,107.639,0,0,0-11.34-33.972c-.52-1-1.06-2.015-1.621-3.04a104.706,104.706,0,0,1-7.136-16.033c-3.566-10.3-5-20.163-3.2-26.609a.887.887,0,0,1,.028-.091c10.758-4.975,14.927-24.267,14.927-24.267s36.7,6.589,57.263,55.513C2109.7,327.461,2125.068,369.256,2119.079,377.87Z" transform="translate(-1968.252 -237.361)" fill="#ee9849"/>
            <path id="Path_494" data-name="Path 494" d="M2081.028,444.732q-.193-2.2-.547-4.668a107.659,107.659,0,0,0-11.34-33.972c1.188-7.21,2.831-13.205,4.633-15.9,7.321-10.971,11.584-12.686,11.584-12.686S2096.336,423.8,2081.028,444.732Z" transform="translate(-1987.95 -301.465)" fill="#e58638"/>
            <g id="Group_496" data-name="Group 496" transform="translate(14.055 44.206)">
              <path id="Path_495" data-name="Path 495" d="M1919.343,520.655s-10.153.533-11.727,1.1-6.518,4.512-6.463,4.988.427.77,1.415.56,4.064-1.53,3.972-1.085-8.772,4.869-8.348,6.748,6.441,3.885,10.764,2.9,11.282-8.307,11.983-8.574C1926.87,525.034,1919.343,520.655,1919.343,520.655Z" transform="translate(-1898.176 -432.609)" fill="#ffb27d"/>
              <path id="Path_496" data-name="Path 496" d="M1945.533,388.34c-2.034-3.286-.568-4.785-.568-4.785s31.366-24.558,33.824-27.039,13.847-41.985,13.847-41.985,3.92-15.988,13.1-17.751c7.976-1.532,13.49,2.414,17.1,7.041a17.01,17.01,0,0,1,1.153,19.13c-8.008,13.495-24.164,40.281-28.881,44.857-10.5,10.185-45.629,24.419-45.629,24.419A12.168,12.168,0,0,1,1945.533,388.34Z" transform="translate(-1926.281 -296.443)" fill="#ee9849"/>
            </g>
            <path id="Path_497" data-name="Path 497" d="M2005.031,187.859c.119-.236.467-.488,1.314-.748a3.55,3.55,0,0,0-1.718-.064c-.479-1.169-1.644-3.16-3.828-3.175a2.693,2.693,0,0,1,1.715,1.58c-2.994-1.9-8.542-2.448-22.392,2.165-18.254,6.08-9.134,16.676-6.368,17.526s7.86-4.6,12.441-5.347,7.059,5.637,8.805,6.166.754-.923,2.582-2.377,2.879,1.967,2.839,4.369,3.526,4.68,3.526,4.68l2.091-3.836c2.091-3.836,1.522-17.762-.476-20.269C2005.387,188.309,2005.211,188.084,2005.031,187.859Z" transform="translate(-1927.147 -183.872)" fill="#2b478b"/>
          </g>
          <path id="Rectangle_17" data-name="Rectangle 17" d="M1.844,0h1029.7a1.843,1.843,0,0,1,1.843,1.843v0a1.843,1.843,0,0,1-1.843,1.843H1.844A1.844,1.844,0,0,1,0,1.844v0A1.844,1.844,0,0,1,1.844,0Z" transform="translate(0 526.052)" fill="#2e3552"/>
          <path id="Path_498" data-name="Path 498" d="M1250.34,1431.284v20.658l-48.9-20.658Z" transform="translate(-806.66 -941.437)" fill="#4271bc"/>
          <rect id="Rectangle_18" data-name="Rectangle 18" width="161.717" height="212.409" transform="translate(700.445 313.642)" fill="#4a75cb"/>
          <rect id="Rectangle_19" data-name="Rectangle 19" width="161.72" height="212.409" transform="translate(650.58 313.643)" fill="#699dee"/>
          <path id="Path_499" data-name="Path 499" d="M2314.532,982.575v31.762l-49.862-31.762Z" transform="translate(-1452.37 -668.932)" fill="#4271bc"/>
        </g>
      </g>
    </g>
    <path id="Path_148" data-name="Path 148" d="M1814.293,529.481s-8.158-11.533-18.453-16.9c0,0-1.016-.554-2.26-1.127-11.2-5.165-23.372-3.1-24.042-2.978-10.446,1.9-8.719,6.334-20.081,9.151-9.443,2.341-12.629-.229-20.677,2.605a35.33,35.33,0,0,0-14.4,9.9Z" transform="translate(-67.67 -357.176)" fill="#fff"/>
    <path id="Path_149" data-name="Path 149" d="M472.672,729.707s-8.158-11.532-18.452-16.9c0,0-1.016-.554-2.26-1.128-11.2-5.165-23.372-3.1-24.042-2.978-10.445,1.9-8.719,6.334-20.081,9.151-9.443,2.342-12.629-.229-20.677,2.605a35.328,35.328,0,0,0-14.4,9.9Z" transform="translate(715.158 -459.007)" fill="#353535" style="mix-blend-mode: soft-light;isolation: isolate"/>
  </g>
</svg>
