<svg xmlns="http://www.w3.org/2000/svg" width="402" height="402" viewBox="0 0 402 402">
  <g id="reading" transform="translate(-1309 -528)">
    <circle id="Ellipse_3" data-name="Ellipse 3" cx="201" cy="201" r="201" transform="translate(1309 528)" fill="#fff"/>
    <g id="Page-1" transform="translate(1388.771 580.047)">
      <g id="_012---E-Reader" data-name="012---E-Reader">
        <path id="Shape" d="M189.072,288.583H19.9A19.9,19.9,0,0,1,0,268.681V19.9A19.9,19.9,0,0,1,19.9,0H189.072a19.9,19.9,0,0,1,19.9,19.9V137.027Z" fill="#35495e"/>
        <path id="Shape-2" data-name="Shape" d="M173.169,4V125.951L156.8,232.876H4V4Z" transform="translate(15.902 15.902)" fill="#ecf0f1"/>
        <path id="Shape-3" data-name="Shape" d="M173.169,19.8V63.137L156.8,170.062H4V101C34.7,69.605,92.864,23.681,173.169,19.8Z" transform="translate(15.902 78.716)" fill="#bdc3c7"/>
        <path id="Shape-4" data-name="Shape" d="M51.829,62.951H21.976a4.976,4.976,0,1,1,0-9.951H51.829a4.976,4.976,0,1,1,0,9.951Z" transform="translate(67.585 210.705)" fill="#2c3e50"/>
        <g id="Group_21" data-name="Group 21" transform="translate(34.829 39.805)">
          <path id="Shape-5" data-name="Shape" d="M69.731,17.951H19.976a4.976,4.976,0,1,1,0-9.951H69.731a4.976,4.976,0,0,1,0,9.951Z" transform="translate(24.805 -8)" fill="#547580"/>
          <path id="Shape-6" data-name="Shape" d="M141.34,22.951H11.976a4.976,4.976,0,1,1,0-9.951H141.34a4.976,4.976,0,1,1,0,9.951Z" transform="translate(-7 11.878)" fill="#547580"/>
          <path id="Shape-7" data-name="Shape" d="M141.34,27.951H11.976a4.976,4.976,0,0,1,0-9.951H141.34a4.976,4.976,0,0,1,0,9.951Z" transform="translate(-7 31.756)" fill="#547580"/>
          <path id="Shape-8" data-name="Shape" d="M141.34,32.951H11.976a4.976,4.976,0,1,1,0-9.951H141.34a4.976,4.976,0,1,1,0,9.951Z" transform="translate(-7 51.634)" fill="#547580"/>
          <path id="Shape-9" data-name="Shape" d="M105.566,37.951H11.976a4.976,4.976,0,1,1,0-9.951h93.59a4.976,4.976,0,0,1,0,9.951Z" transform="translate(-7 71.511)" fill="#547580"/>
          <path id="Shape-10" data-name="Shape" d="M105.019,43.951H11.976a4.976,4.976,0,1,1,0-9.951h93.043a4.976,4.976,0,1,1,0,9.951Z" transform="translate(-7 95.365)" fill="#547580"/>
          <path id="Shape-11" data-name="Shape" d="M76.658,48.951H11.976a4.976,4.976,0,0,1,0-9.951H76.658a4.976,4.976,0,0,1,0,9.951Z" transform="translate(-7 115.243)" fill="#547580"/>
          <path id="Shape-12" data-name="Shape" d="M33.927,53.951H23.976a4.976,4.976,0,1,1,0-9.951h9.951a4.976,4.976,0,1,1,0,9.951Z" transform="translate(40.707 135.121)" fill="#547580"/>
        </g>
        <path id="Shape-13" data-name="Shape" d="M169.292,96.086v29.6a97.392,97.392,0,0,1-4.976,30.65,97.393,97.393,0,0,0-4.976,30.649v9.155a4.976,4.976,0,0,1-4.976,4.976H84.708a4.976,4.976,0,0,1-4.976-4.976V168.73a4.9,4.9,0,0,0-1.94-3.931L41.619,136.637a19.579,19.579,0,0,1-7.513-13.583L31.519,97.38a19.614,19.614,0,0,1,12.688-20.4L26.294,41.554A13.708,13.708,0,0,1,33.658,23a13.957,13.957,0,0,1,5.075-1,13.767,13.767,0,0,1,12.091,7.215L69.632,61.9l.746-.448,7.215-4.329a19.435,19.435,0,0,1,10.7-2.836,19.763,19.763,0,0,1,7.662,1.741c3.931-1.741,10.8-8.906,21.743-6.07a21.4,21.4,0,0,1,7.264,3.632,32.3,32.3,0,0,1,5.175-2.786,19.848,19.848,0,0,1,24.53,8.16l4.677,7.812,5.772,11.494A40.207,40.207,0,0,1,169.292,96.086Z" transform="translate(99.389 87.463)" fill="#fdd7ad"/>
        <path id="Shape-14" data-name="Shape" d="M49.046,60.008,33.97,33.837l.746-.448,7.215-4.329,1.2.313,8.1,14.031a13.757,13.757,0,0,1-2.189,16.6Z" transform="translate(135.05 115.53)" fill="#f9c795"/>
        <path id="Shape-15" data-name="Shape" d="M47.58,54l-.746.448a8.986,8.986,0,0,1-4.677,1.294A9.16,9.16,0,0,1,34.2,51.161L27.18,39.021a19.9,19.9,0,0,1,8.359-5.971Z" transform="translate(108.056 131.393)" fill="#f9c795"/>
        <path id="Shape-16" data-name="Shape" d="M54,47.231l-1.11.274-4.677-7.812a19.624,19.624,0,0,0-8.956-7.911L45.43,28.1a19.872,19.872,0,0,1,12.737,9.155A6.717,6.717,0,0,1,54,47.231Z" transform="translate(156.081 111.714)" fill="#f9c795"/>
        <path id="Shape-17" data-name="Shape" d="M54.593,43.762,49.916,35.95a18.613,18.613,0,0,0-4.826-5.374l2.388-1.443a15.922,15.922,0,0,1,2.786-1.343,20,20,0,0,1,4.777,2.786l.055.04A7.618,7.618,0,0,1,56.5,40.935Z" transform="translate(179.258 110.481)" fill="#f9c795"/>
      </g>
    </g>
  </g>
</svg>
