<svg xmlns="http://www.w3.org/2000/svg" width="100" height="100" viewBox="0 0 100 100">
  <g id="listening" transform="translate(-1309.1 -47.1)">
    <circle id="Ellipse_1" data-name="Ellipse 1" cx="50" cy="50" r="50" transform="translate(1309.1 47.1)" fill="#fff"/>
    <g id="headphones" transform="translate(1319.077 54.055)">
      <g id="Group_2" data-name="Group 2" transform="translate(6.12 0)">
        <g id="Group_1" data-name="Group 1">
          <path id="Path_2" data-name="Path 2" d="M107.2,52.594H98.136v-5.74a25.081,25.081,0,1,0-50.161,0v5.74H38.912v-5.74a34.144,34.144,0,1,1,68.287,0v5.74Z" transform="translate(-38.912 -12.71)" fill="#407093"/>
        </g>
      </g>
      <g id="Group_4" data-name="Group 4" transform="translate(37.913 0)">
        <g id="Group_3" data-name="Group 3">
          <path id="Path_3" data-name="Path 3" d="M243.4,12.711c-.79,0-1.574.029-2.351.082a34.187,34.187,0,0,1,31.793,34.061v5.74h4.7v-5.74A34.182,34.182,0,0,0,243.4,12.711Z" transform="translate(-241.054 -12.711)" fill="#2b4d66"/>
        </g>
      </g>
      <g id="Group_5" data-name="Group 5" transform="translate(26.409 48.819)">
        <circle id="Ellipse_2" data-name="Ellipse 2" cx="13.855" cy="13.855" r="13.855" fill="#dd5790"/>
      </g>
      <g id="Group_6" data-name="Group 6" transform="translate(28.719 51.13)">
        <path id="Path_4" data-name="Path 4" d="M201.8,337.8A13.854,13.854,0,0,1,182.6,357a13.854,13.854,0,1,0,19.2-19.2Z" transform="translate(-182.599 -337.796)" fill="#da387d"/>
      </g>
      <g id="Group_7" data-name="Group 7" transform="translate(0 36.948)">
        <path id="Path_5" data-name="Path 5" d="M10.557,277.754H5.19A5.19,5.19,0,0,1,0,272.563V252.817a5.19,5.19,0,0,1,5.19-5.19h5.366Z" transform="translate(0 -247.627)" fill="#dae7ef"/>
      </g>
      <g id="Group_8" data-name="Group 8" transform="translate(69.971 36.948)">
        <path id="Path_6" data-name="Path 6" d="M444.88,247.627h5.366a5.19,5.19,0,0,1,5.19,5.19v19.746a5.19,5.19,0,0,1-5.19,5.19H444.88Z" transform="translate(-444.88 -247.627)" fill="#dae7ef"/>
      </g>
      <path id="Path_7" data-name="Path 7" d="M5.615,247.627a5.215,5.215,0,0,0-1.077.113V271.1a2.359,2.359,0,0,1-2.359,2.359H.5a5.191,5.191,0,0,0,5.111,4.291h5.366V247.627Z" transform="translate(-0.425 -210.679)" fill="#c1d5e4"/>
      <path id="Path_8" data-name="Path 8" d="M451.079,248.054a5.214,5.214,0,0,1,.067.832v19.746a5.19,5.19,0,0,1-5.19,5.19H444.88v4.291h5.366a5.19,5.19,0,0,0,5.19-5.19V253.177A5.191,5.191,0,0,0,451.079,248.054Z" transform="translate(-374.909 -211.039)" fill="#c1d5e4"/>
      <g id="Group_16" data-name="Group 16" transform="translate(24.48 26.175)">
        <g id="Group_9" data-name="Group 9" transform="translate(4.857 2.732)">
          <path id="Path_9" data-name="Path 9" d="M187.739,208.768a1.214,1.214,0,0,1-1.214-1.214V197.72a1.214,1.214,0,0,1,2.427,0v9.835A1.214,1.214,0,0,1,187.739,208.768Z" transform="translate(-186.525 -196.506)" fill="#dd5790"/>
        </g>
        <g id="Group_10" data-name="Group 10" transform="translate(29.14 4.428)">
          <path id="Path_10" data-name="Path 10" d="M342.135,216.161a1.214,1.214,0,0,1-1.214-1.214v-6.442a1.214,1.214,0,1,1,2.427,0v6.442A1.214,1.214,0,0,1,342.135,216.161Z" transform="translate(-340.921 -207.292)" fill="#dd5790"/>
        </g>
        <g id="Group_11" data-name="Group 11" transform="translate(9.713)">
          <path id="Path_11" data-name="Path 11" d="M218.618,196.862a1.214,1.214,0,0,1-1.214-1.214v-15.3a1.214,1.214,0,1,1,2.427,0v15.3A1.214,1.214,0,0,1,218.618,196.862Z" transform="translate(-217.404 -179.136)" fill="#dd5790"/>
        </g>
        <g id="Group_12" data-name="Group 12" transform="translate(14.57 1.366)">
          <path id="Path_12" data-name="Path 12" d="M249.5,202.815a1.214,1.214,0,0,1-1.214-1.214V189.035a1.214,1.214,0,0,1,2.427,0V201.6A1.214,1.214,0,0,1,249.5,202.815Z" transform="translate(-248.283 -187.821)" fill="#dd5790"/>
        </g>
        <g id="Group_13" data-name="Group 13" transform="translate(24.284)">
          <path id="Path_13" data-name="Path 13" d="M311.256,196.862a1.214,1.214,0,0,1-1.214-1.214v-15.3a1.214,1.214,0,0,1,2.427,0v15.3A1.214,1.214,0,0,1,311.256,196.862Z" transform="translate(-310.042 -179.136)" fill="#dd5790"/>
        </g>
        <g id="Group_14" data-name="Group 14" transform="translate(19.427 6.125)">
          <path id="Path_14" data-name="Path 14" d="M280.376,223.555a1.214,1.214,0,0,1-1.214-1.214v-3.049a1.214,1.214,0,1,1,2.427,0v3.049A1.214,1.214,0,0,1,280.376,223.555Z" transform="translate(-279.162 -218.079)" fill="#dd5790"/>
        </g>
        <g id="Group_15" data-name="Group 15" transform="translate(0 6.125)">
          <path id="Path_15" data-name="Path 15" d="M156.859,223.555a1.214,1.214,0,0,1-1.214-1.214v-3.049a1.214,1.214,0,1,1,2.427,0v3.049A1.214,1.214,0,0,1,156.859,223.555Z" transform="translate(-155.645 -218.079)" fill="#dd5790"/>
        </g>
      </g>
      <g id="Group_17" data-name="Group 17" transform="translate(35.562 56.198)">
        <path id="Path_16" data-name="Path 16" d="M237.1,375.68l-9.58-5.531a.944.944,0,0,0-1.416.817v11.062a.944.944,0,0,0,1.416.817l9.58-5.531A.944.944,0,0,0,237.1,375.68Z" transform="translate(-226.109 -370.021)" fill="#f6f9f9"/>
      </g>
      <g id="Group_18" data-name="Group 18" transform="translate(8.506 32.108)">
        <path id="Path_17" data-name="Path 17" d="M62.008,256.662H56.581a2.5,2.5,0,0,1-2.5-2.5v-34.8a2.5,2.5,0,0,1,2.5-2.5h5.427a2.5,2.5,0,0,1,2.5,2.5v34.8A2.5,2.5,0,0,1,62.008,256.662Z" transform="translate(-54.08 -216.856)" fill="#dae7ef"/>
      </g>
      <g id="Group_19" data-name="Group 19" transform="translate(61.592 32.108)">
        <path id="Path_18" data-name="Path 18" d="M394.111,216.856h5.427a2.5,2.5,0,0,1,2.5,2.5v34.8a2.5,2.5,0,0,1-2.5,2.5h-5.427a2.5,2.5,0,0,1-2.5-2.5v-34.8A2.5,2.5,0,0,1,394.111,216.856Z" transform="translate(-391.61 -216.856)" fill="#dae7ef"/>
      </g>
      <g id="Group_20" data-name="Group 20" transform="translate(8.506 32.108)">
        <path id="Path_19" data-name="Path 19" d="M62.008,216.856H60.086v32.881a2.5,2.5,0,0,1-2.5,2.5h-3.5v1.922a2.5,2.5,0,0,0,2.5,2.5h5.427a2.5,2.5,0,0,0,2.5-2.5v-34.8A2.5,2.5,0,0,0,62.008,216.856Z" transform="translate(-54.08 -216.856)" fill="#c1d5e4"/>
        <path id="Path_20" data-name="Path 20" d="M399.539,216.856h-1.922v32.881a2.5,2.5,0,0,1-2.5,2.5h-3.5v1.922a2.5,2.5,0,0,0,2.5,2.5h5.427a2.5,2.5,0,0,0,2.5-2.5v-34.8A2.5,2.5,0,0,0,399.539,216.856Z" transform="translate(-338.524 -216.856)" fill="#c1d5e4"/>
      </g>
    </g>
  </g>
</svg>
